<svg width="22" height="19" viewBox="0 0 22 19" fill="none" xmlns="http://www.w3.org/2000/svg">
<path d="M7.88354 9.2475C7.89873 7.26756 9.51096 5.67988 11.4909 5.69507C13.4708 5.71026 15.0585 7.32249 15.0433 9.30243C15.0281 11.2824 13.4159 12.8701 11.436 12.8549C9.45603 12.8397 7.86835 11.2274 7.88354 9.2475Z" stroke="#0A2647" stroke-opacity="0.25" stroke-width="1.5" stroke-linecap="round" stroke-linejoin="round"/>
<path d="M11.5221 0.999934C7.99216 0.972854 4.6863 3.02756 2.36875 6.60988C1.45796 8.01294 1.43978 10.3829 2.32894 11.7997C4.59125 15.4172 7.8652 17.5224 11.3951 17.5494C14.925 17.5765 18.2309 15.5218 20.5484 11.9395C21.4592 10.5364 21.4774 8.16652 20.5882 6.74965C18.3259 3.13219 15.052 1.02701 11.5221 0.999934Z" stroke="#0A2647" stroke-opacity="0.25" stroke-width="1.5" stroke-linecap="round" stroke-linejoin="round"/>
</svg>
