<svg width="23" height="23" viewBox="0 0 23 23" fill="none" xmlns="http://www.w3.org/2000/svg">
<path d="M21.2901 17.83C21.2901 18.19 21.2101 18.56 21.0401 18.92C20.8701 19.28 20.6501 19.62 20.3601 19.94C19.8701 20.48 19.3301 20.87 18.7201 21.12C18.1201 21.37 17.4701 21.5 16.7701 21.5C15.7501 21.5 14.6601 21.26 13.5101 20.77C12.3601 20.28 11.2101 19.62 10.0701 18.79C8.90818 17.9401 7.81176 17.0041 6.79007 15.99C5.77884 14.972 4.84617 13.8789 4.00007 12.72C3.18007 11.58 2.52007 10.44 2.04007 9.31C1.56007 8.17 1.32007 7.08 1.32007 6.04C1.32007 5.36 1.44007 4.71 1.68007 4.11C1.92007 3.5 2.30007 2.94 2.83007 2.44C3.47007 1.81 4.17007 1.5 4.91007 1.5C5.19007 1.5 5.47007 1.56 5.72007 1.68C5.98007 1.8 6.21007 1.98 6.39007 2.24L8.71007 5.51C8.89007 5.76 9.02007 5.99 9.11007 6.21C9.20007 6.42 9.25007 6.63 9.25007 6.82C9.25007 7.06 9.18007 7.3 9.04007 7.53C8.91007 7.76 8.72007 8 8.48007 8.24L7.72007 9.03C7.61007 9.14 7.56007 9.27 7.56007 9.43C7.56007 9.51 7.57007 9.58 7.59007 9.66C7.62007 9.74 7.65007 9.8 7.67007 9.86C7.85007 10.19 8.16007 10.62 8.60007 11.14C9.05007 11.66 9.53007 12.19 10.0501 12.72C10.5901 13.25 11.1101 13.74 11.6401 14.19C12.1601 14.63 12.5901 14.93 12.9301 15.11C12.9801 15.13 13.0401 15.16 13.1101 15.19C13.1901 15.22 13.2701 15.23 13.3601 15.23C13.5301 15.23 13.6601 15.17 13.7701 15.06L14.5301 14.31C14.7801 14.06 15.0201 13.87 15.2501 13.75C15.4801 13.61 15.7101 13.54 15.9601 13.54C16.1501 13.54 16.3501 13.58 16.5701 13.67C16.7901 13.76 17.0201 13.89 17.2701 14.06L20.5801 16.41C20.8401 16.59 21.0201 16.8 21.1301 17.05C21.2301 17.3 21.2901 17.55 21.2901 17.83Z" stroke="#6F2877" stroke-width="1.5" stroke-miterlimit="10"/>
</svg>
