<svg width="19" height="22" viewBox="0 0 19 22" fill="none" xmlns="http://www.w3.org/2000/svg">
<path d="M17.5001 20.5C17.5001 16.8235 13.8742 13.85 9.41007 13.85C4.94597 13.85 1.32007 16.8235 1.32007 20.5M9.41007 11C10.659 11 11.8567 10.4996 12.7398 9.60876C13.6229 8.71796 14.119 7.50978 14.119 6.25C14.119 4.99022 13.6229 3.78204 12.7398 2.89124C11.8567 2.00044 10.659 1.5 9.41007 1.5C8.16117 1.5 6.96343 2.00044 6.08033 2.89124C5.19723 3.78204 4.7011 4.99022 4.7011 6.25C4.7011 7.50978 5.19723 8.71796 6.08033 9.60876C6.96343 10.4996 8.16117 11 9.41007 11Z" stroke="#6F2877" stroke-width="1.5" stroke-linecap="round" stroke-linejoin="round"/>
</svg>
