<svg width="143" height="107" viewBox="0 0 143 107" fill="none" xmlns="http://www.w3.org/2000/svg">
<path d="M142.625 93.3801H0.375V93.4514H142.625V93.3801Z" fill="#E0E0E0"/>
<path d="M107.819 96.4006H98.0325V96.4719H107.819V96.4006Z" fill="#E0E0E0"/>
<path d="M31.9659 96.4348H26.458V96.5061H31.9659V96.4348Z" fill="#E0E0E0"/>
<path d="M71.7846 96.2695H60.6208V96.3408H71.7846V96.2695Z" fill="#E0E0E0"/>
<path d="M60.3363 95.2544H55.3462V95.3257H60.3363V95.2544Z" fill="#E0E0E0"/>
<path d="M121.162 95.2913H106.087V95.3626H121.162V95.2913Z" fill="#E0E0E0"/>
<path d="M67.8014 80.6596H12.8673C12.4369 80.6588 12.0244 80.4869 11.7204 80.1816C11.4164 79.8762 11.2456 79.4624 11.2456 79.031V1.61433C11.2494 1.18537 11.4218 0.775216 11.7254 0.472953C12.029 0.170691 12.4394 0.000734832 12.8673 0H67.8014C68.2322 0 68.6454 0.171584 68.9501 0.477004C69.2547 0.782425 69.4259 1.19666 69.4259 1.62859V79.031C69.4259 79.4629 69.2547 79.8772 68.9501 80.1826C68.6454 80.488 68.2322 80.6596 67.8014 80.6596ZM12.8673 0.0570438C12.4558 0.0577993 12.0614 0.222203 11.7707 0.51417C11.48 0.806136 11.3167 1.20181 11.3167 1.61433V79.031C11.3167 79.4435 11.48 79.8392 11.7707 80.1312C12.0614 80.4231 12.4558 80.5875 12.8673 80.5883H67.8014C68.2131 80.5875 68.6078 80.4232 68.8989 80.1313C69.1901 79.8394 69.354 79.4438 69.3547 79.031V1.61433C69.354 1.20155 69.1901 0.805881 68.8989 0.513996C68.6078 0.222111 68.2131 0.0577977 67.8014 0.0570438H12.8673Z" fill="#E0E0E0"/>
<path d="M129.342 80.6596H74.4048C73.9742 80.6588 73.5614 80.487 73.2569 80.1818C72.9524 79.8765 72.781 79.4627 72.7803 79.031V1.61433C72.7848 1.18511 72.9578 0.774959 73.2619 0.472775C73.566 0.170591 73.9766 0.000726818 74.4048 0H129.342C129.769 0.00148441 130.179 0.171772 130.482 0.473954C130.785 0.776137 130.957 1.18586 130.961 1.61433V79.031C130.961 79.4619 130.79 79.8753 130.487 80.1806C130.183 80.4858 129.772 80.6581 129.342 80.6596ZM74.4048 0.0570438C73.993 0.0577977 73.5983 0.222111 73.3072 0.513996C73.016 0.805881 72.8522 1.20155 72.8514 1.61433V79.031C72.8522 79.4438 73.016 79.8394 73.3072 80.1313C73.5983 80.4232 73.993 80.5875 74.4048 80.5883H129.342C129.753 80.5875 130.148 80.4232 130.439 80.1313C130.73 79.8394 130.894 79.4438 130.895 79.031V1.61433C130.894 1.20155 130.73 0.805881 130.439 0.513996C130.148 0.222111 129.753 0.0577977 129.342 0.0570438H74.4048Z" fill="#E0E0E0"/>
<path d="M125.359 57.6796C121.859 52.3374 125.054 46.596 124.522 40.652C123.99 34.7081 118.357 33.4132 119.424 28.3877C120.659 22.5464 117.367 16.9419 113.637 16.9419C109.907 16.9419 106.619 22.5322 107.853 28.3791C108.92 33.4132 103.301 34.711 102.755 40.6435C102.209 46.576 105.418 52.3374 101.916 57.671C98.4137 63.0046 99.3355 70.0865 101.307 73.5976C101.832 74.5292 102.464 75.3955 103.19 76.1788C104.527 77.6168 106.144 78.7636 107.941 79.5478C109.739 80.3319 111.678 80.7366 113.639 80.7366C115.599 80.7366 117.538 80.3319 119.336 79.5478C121.134 78.7636 122.751 77.6168 124.087 76.1788C124.812 75.3947 125.443 74.5284 125.968 73.5976C127.942 70.0951 128.861 63.0331 125.359 57.6796Z" fill="#E0E0E0"/>
<path d="M113.637 61.7324C113.87 61.7324 114.1 61.7783 114.314 61.8675C114.529 61.9566 114.724 62.0873 114.889 62.252C115.053 62.4168 115.183 62.6123 115.272 62.8276C115.361 63.0428 115.407 63.2735 115.407 63.5065V93.3802H111.868V63.5065C111.868 63.2735 111.913 63.0428 112.002 62.8276C112.091 62.6123 112.222 62.4168 112.386 62.252C112.55 62.0873 112.745 61.9566 112.96 61.8675C113.175 61.7783 113.405 61.7324 113.637 61.7324Z" fill="#F0F0F0"/>
<path d="M91.3893 93.3801H86.5784V63.5093C86.5799 62.8691 86.8342 62.2555 87.2858 61.8027C87.7374 61.35 88.3494 61.095 88.9881 61.0935C89.6267 61.095 90.2388 61.35 90.6904 61.8027C91.1419 62.2555 91.3963 62.8691 91.3978 63.5093L91.3893 93.3801Z" fill="#E0E0E0"/>
<path d="M88.9798 85.3229C97.177 85.3229 103.822 78.6609 103.822 70.443C103.822 62.2252 97.177 55.5632 88.9798 55.5632C80.7826 55.5632 74.1375 62.2252 74.1375 70.443C74.1375 78.6609 80.7826 85.3229 88.9798 85.3229Z" fill="#F0F0F0"/>
<path d="M106.421 65.978C107.2 62.8349 105.289 59.654 102.154 58.8732C99.0188 58.0925 95.8459 60.0076 95.0671 63.1507C94.2883 66.2938 96.1986 69.4747 99.3338 70.2555C102.469 71.0362 105.642 69.1212 106.421 65.978Z" fill="#F0F0F0"/>
<path d="M80.391 61.6497C80.6984 59.7576 79.4175 57.9739 77.5302 57.6657C75.6429 57.3576 73.8637 58.6416 73.5563 60.5338C73.2489 62.4259 74.5298 64.2095 76.4171 64.5177C78.3044 64.8258 80.0836 63.5418 80.391 61.6497Z" fill="#F0F0F0"/>
<path d="M80.7407 61.7326C82.0825 61.7326 83.1703 60.6421 83.1703 59.2968C83.1703 57.9516 82.0825 56.8611 80.7407 56.8611C79.3988 56.8611 78.311 57.9516 78.311 59.2968C78.311 60.6421 79.3988 61.7326 80.7407 61.7326Z" fill="#F0F0F0"/>
<path d="M58.4129 75.5516C56.1049 75.8961 53.8993 76.7399 51.949 78.0244C51.932 75.7655 51.5194 73.6235 50.4611 71.8922C48.8508 73.4638 47.545 75.5002 46.4781 77.6907C46.0883 73.5864 45.0101 69.5934 42.6231 67.0635C39.047 69.3195 37.2034 73.0787 36.3271 77.0604C34.8795 74.3756 32.7783 72.1014 30.2189 70.449C28.0311 72.7593 27.3312 75.9537 27.391 79.228C24.9045 76.3245 22.1448 74.0599 19.4534 73.7946C18.7906 78.3838 20.2017 82.7134 21.9969 86.136C23.1624 88.3319 24.9035 90.1674 27.0327 91.4445C29.1619 92.7216 31.5984 93.392 34.0796 93.3834H45.7697C50.7513 93.3834 55.4228 90.7194 57.7585 86.3071C59.2351 83.512 59.9406 79.9154 58.4129 75.5516Z" fill="#E0E0E0"/>
<path d="M55.073 16.2973C56.5154 12.0561 55.3575 9.03564 51.8382 9.03564C49.6248 9.03564 46.8794 10.225 44.2051 12.1588C43.9035 11.055 43.0528 10.3961 41.6844 10.3961C39.2747 10.3961 35.9546 12.4383 33.3514 15.319C32.6185 14.6209 31.6482 14.2284 30.6373 14.2209C28.33 14.0897 25.539 15.2648 23.1122 17.1729C22.9906 17.0023 22.8301 16.8633 22.644 16.7675C22.4579 16.6718 22.2517 16.622 22.0425 16.6224C20.7139 16.5483 18.913 17.7348 18.0225 19.2693C17.9685 19.3634 17.9201 19.4575 17.8689 19.5545H55.7728C55.8866 18.214 55.6505 17.0959 55.073 16.2973Z" fill="#F0F0F0"/>
<path d="M55.1896 42.0496C55.8951 39.979 55.3347 38.5044 53.6106 38.5044C52.5267 38.5044 51.1867 39.0748 49.8808 40.0303C49.8105 39.7641 49.6478 39.5318 49.4221 39.375C49.1963 39.2182 48.9222 39.1472 48.6489 39.1747C47.4739 39.1747 45.8523 40.1729 44.5777 41.5819C44.2205 41.2398 43.746 41.0479 43.252 41.0457C42.114 40.9801 40.7626 41.5534 39.5762 42.486C39.5187 42.4036 39.4426 42.3358 39.3542 42.2882C39.2657 42.2407 39.1673 42.2146 39.067 42.2122C38.4183 42.1751 37.5392 42.7541 37.1039 43.5043L37.0271 43.6412H55.5424C55.6198 43.0854 55.4945 42.5203 55.1896 42.0496Z" fill="#F0F0F0"/>
<path d="M97.8931 26.3797C97.747 26.3591 97.5997 26.3486 97.4521 26.3483C97.5887 24.2805 96.8006 22.9571 95.1135 22.9571C93.8987 22.9571 92.4051 23.6473 90.8859 24.8138C91.3211 20.798 89.9271 18.1882 86.7691 18.1882C84.2257 18.1882 81.0023 19.8995 77.8188 22.6547C77.5343 21.0803 76.6011 20.1334 75.025 20.1334C72.2568 20.1334 68.3222 23.054 65.1671 27.1726C64.8075 26.6977 64.3465 26.3095 63.8177 26.0366C63.289 25.7636 62.706 25.6129 62.1115 25.5953C59.4771 25.4099 56.2025 27.087 53.292 29.8194C53.1861 29.589 53.0176 29.3932 52.8057 29.2545C52.5939 29.1157 52.3473 29.0397 52.0943 29.0351C50.6519 28.9324 48.6803 30.4412 47.511 32.4577H100.212C101.449 29.4001 100.465 26.7248 97.8931 26.3797Z" fill="#F0F0F0"/>
<path d="M71.5001 106.261C101.965 106.261 126.662 104.815 126.662 103.032C126.662 101.249 101.965 99.8032 71.5001 99.8032C41.0351 99.8032 16.3384 101.249 16.3384 103.032C16.3384 104.815 41.0351 106.261 71.5001 106.261Z" fill="#F5F5F5"/>
<path d="M14.2756 27.2551L79.1331 36.616L87.836 45.4206L14.2756 27.2551Z" fill="#6F2877"/>
<path opacity="0.6" d="M14.2756 27.2551L79.1331 36.616L87.836 45.4206L14.2756 27.2551Z" fill="white"/>
<path d="M14.2756 27.2551L79.1331 36.616L76.1231 49.3481L14.2756 27.2551Z" fill="#6F2877"/>
<path opacity="0.2" d="M14.2756 27.2551L79.1331 36.616L76.1231 49.3481L14.2756 27.2551Z" fill="black"/>
<path d="M74.7917 12.5153L78.5556 30.1988C78.6535 30.6605 78.5647 31.1424 78.3087 31.5386C78.0527 31.9348 77.6504 32.213 77.19 32.3122L43.5963 39.4997C43.1357 39.5971 42.6555 39.5078 42.2604 39.2512C41.8654 38.9947 41.5877 38.5918 41.4881 38.1307L37.7213 20.4472C37.6243 19.9851 37.7138 19.5033 37.9702 19.1072C38.2267 18.7111 38.6293 18.433 39.0898 18.3337L72.6835 11.1462C73.1445 11.0489 73.6251 11.1387 74.0202 11.3958C74.4153 11.6529 74.6927 12.0564 74.7917 12.5181V12.5153Z" fill="#6F2877"/>
<path opacity="0.4" d="M74.7917 12.5153L78.5556 30.1988C78.6535 30.6605 78.5647 31.1424 78.3087 31.5386C78.0527 31.9348 77.6504 32.213 77.19 32.3122L43.5963 39.4997C43.1357 39.5971 42.6555 39.5078 42.2604 39.2512C41.8654 38.9947 41.5877 38.5918 41.4881 38.1307L37.7213 20.4472C37.6243 19.9851 37.7138 19.5033 37.9702 19.1072C38.2267 18.7111 38.6293 18.433 39.0898 18.3337L72.6835 11.1462C73.1445 11.0489 73.6251 11.1387 74.0202 11.3958C74.4153 11.6529 74.6927 12.0564 74.7917 12.5181V12.5153Z" fill="black"/>
<path d="M73.9638 11.3573L62.7403 25.1704C61.6994 26.4511 60.2536 27.3372 58.6421 27.6821C57.0306 28.027 55.3499 27.81 53.8781 27.0671L38.0059 19.0525C38.2627 18.6827 38.6502 18.4247 39.0898 18.3309L72.6836 11.1434C73.1219 11.0499 73.5794 11.1263 73.9638 11.3573Z" fill="#6F2877"/>
<path d="M14.2756 27.2551L67.7702 40.0015L76.1231 49.3481L14.2756 27.2551Z" fill="#6F2877"/>
<path opacity="0.6" d="M14.2756 27.2551L67.7702 40.0015L76.1231 49.3481L14.2756 27.2551Z" fill="white"/>
<path d="M33.7893 39.5413L33.6455 39.7874L39.5985 43.2832L39.7423 43.0371L33.7893 39.5413Z" fill="#6F2877"/>
<path d="M42.3706 44.5784L42.2268 44.8245L44.3674 46.0815L44.5112 45.8354L42.3706 44.5784Z" fill="#6F2877"/>
<path d="M14.2756 27.2551L67.7702 40.0015L57.3717 52.5654L14.2756 27.2551Z" fill="#6F2877"/>
<path d="M85.8274 57.1178C85.7553 57.118 85.6839 57.1044 85.6169 57.0779L76.9055 53.621C76.7661 53.5648 76.6546 53.4555 76.5953 53.3171C76.536 53.1787 76.5337 53.0224 76.5889 52.8823C76.6441 52.7422 76.7524 52.6297 76.89 52.5693C77.0277 52.5089 77.1836 52.5056 77.3237 52.56L86.0379 56.0169C86.1612 56.0657 86.2636 56.1562 86.3274 56.2726C86.3913 56.3891 86.4126 56.5243 86.3876 56.6548C86.3626 56.7853 86.293 56.903 86.1907 56.9875C86.0885 57.0721 85.9599 57.1181 85.8274 57.1178Z" fill="#6F2877"/>
<path opacity="0.3" d="M85.8274 57.1178C85.7553 57.118 85.6839 57.1044 85.6169 57.0779L76.9055 53.621C76.7661 53.5648 76.6546 53.4555 76.5953 53.3171C76.536 53.1787 76.5337 53.0224 76.5889 52.8823C76.6441 52.7422 76.7524 52.6297 76.89 52.5693C77.0277 52.5089 77.1836 52.5056 77.3237 52.56L86.0379 56.0169C86.1612 56.0657 86.2636 56.1562 86.3274 56.2726C86.3913 56.3891 86.4126 56.5243 86.3876 56.6548C86.3626 56.7853 86.293 56.903 86.1907 56.9875C86.0885 57.0721 85.9599 57.1181 85.8274 57.1178Z" fill="black"/>
<path d="M85.3126 52.1092C85.2413 52.1088 85.1707 52.0942 85.1049 52.0665L80.4249 50.1983C80.3549 50.1711 80.291 50.1303 80.2369 50.0783C80.1827 50.0262 80.1393 49.9639 80.1092 49.895C80.0791 49.8261 80.063 49.7519 80.0616 49.6767C80.0603 49.6014 80.0738 49.5267 80.1013 49.4567C80.1289 49.3868 80.17 49.323 80.2223 49.269C80.2746 49.215 80.337 49.172 80.4059 49.1423C80.4749 49.1126 80.549 49.0968 80.624 49.096C80.6991 49.0951 80.7735 49.1092 80.8431 49.1373L85.5232 50.9969C85.6634 51.0522 85.776 51.1611 85.8363 51.2996C85.8966 51.4381 85.8996 51.5949 85.8446 51.7356C85.8046 51.8449 85.7321 51.9392 85.637 52.006C85.5419 52.0728 85.4287 52.1088 85.3126 52.1092Z" fill="#6F2877"/>
<path opacity="0.5" d="M85.3126 52.1092C85.2413 52.1088 85.1707 52.0942 85.1049 52.0665L80.4249 50.1983C80.3549 50.1711 80.291 50.1303 80.2369 50.0783C80.1827 50.0262 80.1393 49.9639 80.1092 49.895C80.0791 49.8261 80.063 49.7519 80.0616 49.6767C80.0603 49.6014 80.0738 49.5267 80.1013 49.4567C80.1289 49.3868 80.17 49.323 80.2223 49.269C80.2746 49.215 80.337 49.172 80.4059 49.1423C80.4749 49.1126 80.549 49.0968 80.624 49.096C80.6991 49.0951 80.7735 49.1092 80.8431 49.1373L85.5232 50.9969C85.6634 51.0522 85.776 51.1611 85.8363 51.2996C85.8966 51.4381 85.8996 51.5949 85.8446 51.7356C85.8046 51.8449 85.7321 51.9392 85.637 52.006C85.5419 52.0728 85.4287 52.1088 85.3126 52.1092Z" fill="white"/>
<path d="M75.5286 57.0435C75.4575 57.0427 75.3872 57.0291 75.3209 57.0036L66.8229 53.6209C66.7529 53.5937 66.689 53.5529 66.6348 53.5009C66.5806 53.4488 66.5372 53.3865 66.5072 53.3176C66.4771 53.2487 66.4609 53.1745 66.4596 53.0993C66.4582 53.0241 66.4717 52.9493 66.4993 52.8793C66.5269 52.8094 66.568 52.7456 66.6203 52.6916C66.6725 52.6376 66.7349 52.5946 66.8039 52.5649C66.8728 52.5352 66.9469 52.5195 67.022 52.5186C67.097 52.5177 67.1715 52.5318 67.2411 52.5599L75.7391 55.9311C75.8624 55.98 75.9648 56.0705 76.0286 56.1869C76.0925 56.3034 76.1137 56.4385 76.0888 56.5691C76.0638 56.6996 75.9942 56.8173 75.8919 56.9018C75.7896 56.9863 75.6611 57.0324 75.5286 57.0321V57.0435Z" fill="#6F2877"/>
<path opacity="0.3" d="M75.5286 57.0435C75.4575 57.0427 75.3872 57.0291 75.3209 57.0036L66.8229 53.6209C66.7529 53.5937 66.689 53.5529 66.6348 53.5009C66.5806 53.4488 66.5372 53.3865 66.5072 53.3176C66.4771 53.2487 66.4609 53.1745 66.4596 53.0993C66.4582 53.0241 66.4717 52.9493 66.4993 52.8793C66.5269 52.8094 66.568 52.7456 66.6203 52.6916C66.6725 52.6376 66.7349 52.5946 66.8039 52.5649C66.8728 52.5352 66.9469 52.5195 67.022 52.5186C67.097 52.5177 67.1715 52.5318 67.2411 52.5599L75.7391 55.9311C75.8624 55.98 75.9648 56.0705 76.0286 56.1869C76.0925 56.3034 76.1137 56.4385 76.0888 56.5691C76.0638 56.6996 75.9942 56.8173 75.8919 56.9018C75.7896 56.9863 75.6611 57.0324 75.5286 57.0321V57.0435Z" fill="black"/>
<path d="M106.294 31.3228C107.048 32.7973 107.74 34.2748 108.397 35.7864C109.054 37.2981 109.666 38.8297 110.2 40.4355L110.394 41.043C110.428 41.1514 110.476 41.3282 110.505 41.4537C110.533 41.5792 110.559 41.7218 110.573 41.8416C110.638 42.3017 110.672 42.7658 110.673 43.2306C110.677 44.0877 110.637 44.9445 110.553 45.7976C110.394 47.4489 110.136 49.089 109.779 50.709L108.218 50.535C108.198 48.9292 108.183 47.3064 108.126 45.7234C108.101 44.9362 108.055 44.1461 107.976 43.4046C107.94 43.0563 107.883 42.7106 107.805 42.3692C107.791 42.2894 107.768 42.2295 107.751 42.1639C107.734 42.0983 107.717 42.0755 107.688 41.9899L107.472 41.4508C106.878 40.0076 106.209 38.553 105.526 37.1041L103.461 32.7574L106.294 31.3228Z" fill="#E4897B"/>
<path d="M108.241 50.0327L107.512 51.3989L109.839 52.0492C109.839 52.0492 110.283 50.9511 109.754 50.0841L108.241 50.0327Z" fill="#E4897B"/>
<path d="M106.622 53.3669L108.761 53.5381L109.839 52.0492L107.512 51.3989L106.622 53.3669Z" fill="#E4897B"/>
<path d="M96.499 21.4655C96.4677 21.6338 96.351 21.7507 96.2429 21.7279C96.1348 21.7051 96.0751 21.5539 96.1092 21.3885C96.1434 21.2231 96.2572 21.1033 96.3653 21.1261C96.4734 21.1489 96.536 21.3001 96.499 21.4655Z" fill="#263238"/>
<path d="M96.3681 21.7507C96.0676 22.2174 95.7048 22.6406 95.2898 23.0085C95.3867 23.1119 95.5048 23.1929 95.6359 23.2461C95.767 23.2993 95.9081 23.3233 96.0494 23.3166L96.3681 21.7507Z" fill="#DE5753"/>
<path d="M97.2901 20.6696C97.2632 20.6689 97.2377 20.6576 97.219 20.6382C97.1373 20.5445 97.0347 20.4714 96.9195 20.4248C96.8043 20.3782 96.6798 20.3595 96.5561 20.3701C96.5325 20.3703 96.5097 20.3622 96.4915 20.3471C96.4734 20.332 96.4612 20.3109 96.4571 20.2876C96.453 20.2644 96.4573 20.2404 96.4691 20.22C96.481 20.1995 96.4998 20.184 96.522 20.1762C96.6802 20.1561 96.8409 20.1755 96.9898 20.2327C97.1387 20.2899 97.2712 20.3832 97.3755 20.5042C97.3937 20.5228 97.4039 20.5479 97.4039 20.574C97.4039 20.6002 97.3937 20.6252 97.3755 20.6439C97.3641 20.6544 97.3505 20.6621 97.3357 20.6665C97.321 20.671 97.3054 20.672 97.2901 20.6696Z" fill="#263238"/>
<path d="M101.205 23.7957C100.906 25.3301 100.607 28.1367 101.677 29.1606C101.677 29.1606 101.259 30.715 98.4167 30.715C95.2872 30.715 96.9259 29.1606 96.9259 29.1606C98.6329 28.7527 98.5845 27.4835 98.2886 26.2942L101.205 23.7957Z" fill="#E4897B"/>
<path d="M102.107 30.1277C102.332 29.3776 102.579 28.5191 102.067 28.2481C101.498 27.9629 98.4054 27.6491 97.3385 28.2053C96.2717 28.7615 96.5761 30.2874 96.5761 30.2874L102.107 30.1277Z" fill="#263238"/>
<path d="M108.667 101.252C108.579 101.264 108.489 101.258 108.403 101.234C108.317 101.211 108.237 101.17 108.167 101.115C108.142 101.081 108.128 101.039 108.128 100.997C108.128 100.954 108.142 100.913 108.167 100.879C108.183 100.849 108.205 100.823 108.232 100.803C108.259 100.783 108.29 100.769 108.323 100.762C108.63 100.693 109.205 101.087 109.231 101.104C109.238 101.11 109.244 101.118 109.247 101.127C109.251 101.136 109.252 101.146 109.25 101.155C109.249 101.164 109.244 101.173 109.238 101.18C109.231 101.186 109.223 101.191 109.213 101.192C109.034 101.231 108.851 101.251 108.667 101.252ZM108.405 100.853H108.346C108.326 100.857 108.308 100.865 108.293 100.877C108.277 100.889 108.264 100.904 108.255 100.921C108.209 101.001 108.238 101.035 108.255 101.047C108.343 101.167 108.77 101.167 109.083 101.115C108.879 100.98 108.647 100.893 108.405 100.859V100.853Z" fill="#6F2877"/>
<path d="M109.202 101.201H109.179C108.963 101.081 108.545 100.63 108.588 100.391C108.595 100.354 108.615 100.321 108.644 100.297C108.673 100.273 108.709 100.26 108.747 100.26C108.784 100.256 108.822 100.259 108.858 100.27C108.895 100.281 108.928 100.299 108.957 100.322C109.199 100.522 109.242 101.127 109.242 101.152C109.243 101.161 109.241 101.171 109.237 101.179C109.233 101.187 109.227 101.194 109.219 101.198C109.214 101.2 109.208 101.201 109.202 101.201ZM108.781 100.345H108.77C108.704 100.345 108.698 100.385 108.696 100.397C108.67 100.536 108.937 100.881 109.151 101.044C109.136 100.806 109.051 100.577 108.906 100.388C108.887 100.373 108.865 100.362 108.842 100.356C108.818 100.349 108.794 100.348 108.77 100.351L108.781 100.345Z" fill="#6F2877"/>
<path d="M96.1178 101.252C95.8503 101.252 95.5914 101.215 95.5032 101.095C95.481 101.064 95.469 101.026 95.469 100.987C95.469 100.948 95.481 100.91 95.5032 100.879C95.5205 100.849 95.5435 100.824 95.5709 100.804C95.5983 100.784 95.6295 100.769 95.6626 100.762C96.0068 100.668 96.7408 101.084 96.7721 101.101C96.7805 101.106 96.7871 101.114 96.7911 101.123C96.7952 101.132 96.7965 101.143 96.7949 101.152C96.7932 101.162 96.7885 101.172 96.7814 101.179C96.7742 101.186 96.765 101.191 96.755 101.192C96.5449 101.232 96.3316 101.252 96.1178 101.252ZM95.7849 100.847C95.7538 100.843 95.7221 100.843 95.691 100.847C95.671 100.851 95.652 100.859 95.6354 100.871C95.6187 100.883 95.6047 100.898 95.5943 100.916C95.5573 100.978 95.5715 101.007 95.5943 101.024C95.6882 101.155 96.2173 101.164 96.6099 101.11C96.3542 100.971 96.0739 100.884 95.7849 100.853V100.847Z" fill="#6F2877"/>
<path d="M96.7494 101.201H96.7295C96.4763 101.09 95.9784 100.631 96.0154 100.4C96.0154 100.343 96.0637 100.274 96.2003 100.26C96.2511 100.252 96.3029 100.256 96.3521 100.271C96.4013 100.285 96.4467 100.311 96.4848 100.345C96.7522 100.562 96.8063 101.127 96.8091 101.153C96.8102 101.161 96.809 101.17 96.8055 101.178C96.802 101.186 96.7963 101.193 96.7892 101.198C96.7832 101.201 96.7765 101.203 96.7696 101.204C96.7627 101.204 96.7558 101.203 96.7494 101.201ZM96.2401 100.345H96.2088C96.1206 100.345 96.115 100.391 96.1121 100.402C96.0893 100.545 96.4307 100.902 96.6811 101.056C96.6565 100.816 96.5569 100.59 96.3966 100.411C96.356 100.376 96.3051 100.355 96.2515 100.351L96.2401 100.345Z" fill="#6F2877"/>
<path d="M99.0483 101.15H96.9572L96.7495 96.2981H98.8406L99.0483 101.15Z" fill="#E4897B"/>
<path d="M111.598 101.15H109.507L108.457 96.2981H110.545L111.598 101.15Z" fill="#E4897B"/>
<path d="M109.359 100.907H111.706C111.748 100.908 111.788 100.922 111.821 100.949C111.853 100.975 111.876 101.012 111.885 101.053L112.298 102.915C112.307 102.961 112.306 103.007 112.295 103.052C112.284 103.097 112.263 103.139 112.233 103.175C112.204 103.21 112.166 103.239 112.124 103.258C112.082 103.277 112.037 103.287 111.99 103.286C111.171 103.272 110.773 103.223 109.74 103.223C109.106 103.223 107.797 103.292 106.918 103.292C106.039 103.292 105.928 102.436 106.286 102.342C107.896 101.988 108.502 101.5 109.017 101.038C109.111 100.954 109.233 100.907 109.359 100.907Z" fill="#263238"/>
<path d="M96.9714 100.907H99.2474C99.2893 100.908 99.3298 100.922 99.3624 100.949C99.3949 100.975 99.4176 101.012 99.4266 101.053L99.8391 102.915C99.849 102.96 99.8486 103.007 99.838 103.051C99.8274 103.096 99.8068 103.138 99.7778 103.174C99.7488 103.209 99.7121 103.238 99.6705 103.257C99.6289 103.277 99.5835 103.287 99.5376 103.286C98.7154 103.272 97.5261 103.223 96.4906 103.223C95.2814 103.223 94.2345 103.292 92.8148 103.292C91.9613 103.292 91.7195 102.436 92.078 102.342C93.7138 101.982 95.0481 101.945 96.4621 101.073C96.6127 100.97 96.7894 100.913 96.9714 100.907Z" fill="#263238"/>
<path d="M95.9672 32.8401C94.2195 32.7043 92.4806 32.473 90.758 32.147C89.9045 31.9816 89.034 31.7962 88.1691 31.5623C87.2826 31.3348 86.412 31.049 85.5631 30.7067C85.344 30.6154 85.1221 30.5156 84.903 30.4214C84.6564 30.2996 84.4188 30.1605 84.1918 30.005C83.7821 29.7341 83.4293 29.4517 83.0794 29.1722C82.3824 28.6017 81.7366 28.0313 81.0879 27.4466C79.8162 26.2658 78.6099 25.0451 77.4463 23.7616L78.4932 22.5894L82.6213 25.5642C83.3013 26.0548 83.9898 26.5368 84.6669 26.9903C85.0026 27.2156 85.3469 27.4266 85.6627 27.6063C85.7947 27.6818 85.9315 27.7485 86.0723 27.806C86.2402 27.8716 86.4109 27.9372 86.5901 27.9999C88.1277 28.4746 89.7002 28.8274 91.2929 29.0552C92.9174 29.3119 94.596 29.523 96.2176 29.6941L95.9672 32.8401Z" fill="#E4897B"/>
<path d="M105.418 29.6341C107.378 30.0848 109.358 35.8262 109.358 35.8262L105.327 38.7268C105.327 38.7268 104.189 36.0515 103.091 33.7127C101.941 31.2627 103.415 29.1749 105.418 29.6341Z" fill="#6F2877"/>
<path opacity="0.4" d="M105.418 29.6341C107.378 30.0848 109.358 35.8262 109.358 35.8262L105.327 38.7268C105.327 38.7268 104.189 36.0515 103.091 33.7127C101.941 31.2627 103.415 29.1749 105.418 29.6341Z" fill="black"/>
<path d="M104.289 32.7717L103.489 34.5658C104.317 36.3569 105.074 38.131 105.276 38.6044C105.247 36.4853 104.846 33.8556 104.289 32.7717Z" fill="#6F2877"/>
<path opacity="0.6" d="M104.289 32.7717L103.489 34.5658C104.317 36.3569 105.074 38.131 105.276 38.6044C105.247 36.4853 104.846 33.8556 104.289 32.7717Z" fill="black"/>
<path d="M93.711 29.7426C93.711 29.7426 91.4862 32.2611 93.5859 47.854H104.764C104.844 46.1427 103.765 37.7401 105.418 29.6342C104.183 29.3957 102.933 29.2376 101.677 29.1608C100.095 29.0695 98.5083 29.0695 96.9259 29.1608C95.8408 29.2704 94.7659 29.4649 93.711 29.7426Z" fill="#6F2877"/>
<path opacity="0.4" d="M93.711 29.7426C93.711 29.7426 91.4862 32.2611 93.5859 47.854H104.764C104.844 46.1427 103.765 37.7401 105.418 29.6342C104.183 29.3957 102.933 29.2376 101.677 29.1608C100.095 29.0695 98.5083 29.0695 96.9259 29.1608C95.8408 29.2704 94.7659 29.4649 93.711 29.7426Z" fill="black"/>
<path d="M92.8829 32.7717C92.809 33.3621 92.7521 34.0609 92.7151 34.8852C93.819 34.553 94.8678 34.059 95.8275 33.4192L92.8829 32.7717Z" fill="#6F2877"/>
<path opacity="0.6" d="M92.8829 32.7717C92.809 33.3621 92.7521 34.0609 92.7151 34.8852C93.819 34.553 94.8678 34.059 95.8275 33.4192L92.8829 32.7717Z" fill="black"/>
<path d="M97.6739 33.0852C96.1774 34.4143 90.4646 34.2802 90.4646 34.2802L90.2769 28.7356C92.206 29.0111 94.1519 29.1521 96.1006 29.1577C99.2841 29.0921 99.3069 31.6191 97.6739 33.0852Z" fill="#6F2877"/>
<path opacity="0.4" d="M97.6739 33.0852C96.1774 34.4143 90.4646 34.2802 90.4646 34.2802L90.2769 28.7356C92.206 29.0111 94.1519 29.1521 96.1006 29.1577C99.2841 29.0921 99.3069 31.6191 97.6739 33.0852Z" fill="black"/>
<path d="M78.547 22.6006L77.1245 20.9207L75.5911 22.632C75.5911 22.632 76.5356 24.2235 78.0349 23.9725L78.547 22.6006Z" fill="#E4897B"/>
<path d="M75.0876 18.9614L74.5356 21.1547L75.5798 22.6208L77.1132 20.9209L75.0876 18.9614Z" fill="#E4897B"/>
<path d="M96.7495 96.3008L96.8576 98.7993H98.9487L98.8406 96.3008H96.7495Z" fill="#CE6F64"/>
<path d="M110.548 96.3008H108.457L108.997 98.7993H111.088L110.548 96.3008Z" fill="#CE6F64"/>
<path d="M98.007 19.3949C96.1321 18.5393 95.5404 14.7373 100.935 15.6871C100.935 15.6871 100.121 16.5884 101.771 17.1588C103.421 17.7292 102.041 21.2517 98.007 19.3949Z" fill="#263238"/>
<path d="M102.081 22.247C101.543 24.2435 101.333 25.4586 100.089 26.2942C98.2287 27.5492 95.9157 26.1089 95.8417 23.9783C95.7763 22.0645 96.6668 19.101 98.8148 18.696C99.2889 18.6028 99.7789 18.633 100.238 18.7836C100.697 18.9342 101.11 19.2002 101.438 19.5563C101.765 19.9124 101.996 20.3466 102.109 20.8177C102.222 21.2887 102.212 21.7808 102.081 22.247Z" fill="#E4897B"/>
<path d="M100.86 16.6851C102.138 17.3982 103.868 17.826 103.705 18.8414C103.492 20.0821 104.749 19.3063 104.456 21.1517C104.266 22.3581 102.047 26.0146 100.473 25.8378C98.1235 25.5526 98.4222 21.9702 98.4137 20.0821C98.408 18.9669 98.3568 15.279 100.86 16.6851Z" fill="#263238"/>
<path d="M98.1323 18.2854C97.5633 18.4195 96.8093 21.708 99.0142 22.0103C101.549 22.3555 98.1323 18.2854 98.1323 18.2854Z" fill="#263238"/>
<path d="M98.1889 19.4518C97.4919 19.5145 95.9129 18.6731 96.1064 17.4068C96.1064 17.3982 97.105 18.8871 98.1889 19.4518Z" fill="#263238"/>
<path d="M99.2248 22.2728C99.0108 22.7431 98.6477 23.1292 98.192 23.3709C97.5917 23.6846 97.2532 23.2283 97.3897 22.6236C97.5121 22.0817 97.9729 21.2631 98.5903 21.1975C99.2077 21.1319 99.4723 21.7024 99.2248 22.2728Z" fill="#E4897B"/>
<path d="M102.354 19.9652C102.779 19.7802 103.152 19.4924 103.439 19.1275C103.726 18.7627 103.918 18.3321 103.999 17.8745C103.999 17.8745 104.938 20.49 102.354 19.9652Z" fill="#263238"/>
<path d="M104.727 19.9224C104.529 19.7891 104.301 19.7071 104.064 19.6837C103.826 19.6603 103.587 19.6963 103.367 19.7884C103.367 19.7884 104.243 18.6503 104.727 19.9224Z" fill="#263238"/>
<path d="M97.5518 47.8539C97.5518 47.8539 99.9245 63.8661 101.225 69.8642C102.647 76.4242 108.024 98.3175 108.024 98.3175H111.851C111.851 98.3175 108.309 76.9633 107.495 70.4489C106.613 63.3897 104.764 47.8425 104.764 47.8425L97.5518 47.8539Z" fill="#6F2877"/>
<path opacity="0.5" d="M97.5518 47.8539C97.5518 47.8539 99.9245 63.8661 101.225 69.8642C102.647 76.4242 108.024 98.3175 108.024 98.3175H111.851C111.851 98.3175 108.309 76.9633 107.495 70.4489C106.613 63.3897 104.764 47.8425 104.764 47.8425L97.5518 47.8539Z" fill="white"/>
<path d="M107.412 96.9026C107.395 96.9026 107.808 98.3772 107.808 98.3772H112.115L112.036 97.0623L107.412 96.9026Z" fill="#6F2877"/>
<path opacity="0.1" d="M107.412 96.9026C107.395 96.9026 107.808 98.3772 107.808 98.3772H112.115L112.036 97.0623L107.412 96.9026Z" fill="black"/>
<path d="M99.051 53.5581C101.794 54.0972 101.503 64.3508 101.173 69.6244C100.382 65.8966 99.2245 58.7234 98.4336 53.6323C98.6249 53.5378 98.8427 53.5116 99.051 53.5581Z" fill="#6F2877"/>
<path opacity="0.4" d="M99.051 53.5581C101.794 54.0972 101.503 64.3508 101.173 69.6244C100.382 65.8966 99.2245 58.7234 98.4336 53.6323C98.6249 53.5378 98.8427 53.5116 99.051 53.5581Z" fill="white"/>
<path d="M93.5859 47.8535C93.5859 47.8535 93.3014 63.5177 93.5261 69.9094C93.7623 76.555 96.0866 98.3171 96.0866 98.3171H99.6258C99.6258 98.3171 99.7567 76.9429 99.9103 70.4171C100.084 63.3009 100.94 47.8535 100.94 47.8535H93.5859Z" fill="#6F2877"/>
<path opacity="0.5" d="M93.5859 47.8535C93.5859 47.8535 93.3014 63.5177 93.5261 69.9094C93.7623 76.555 96.0866 98.3171 96.0866 98.3171H99.6258C99.6258 98.3171 99.7567 76.9429 99.9103 70.4171C100.084 63.3009 100.94 47.8535 100.94 47.8535H93.5859Z" fill="white"/>
<path d="M96.8205 95.7675C96.8119 95.7676 96.8037 95.7644 96.7973 95.7585C96.791 95.7527 96.7871 95.7447 96.7864 95.7362C96.1605 89.7124 94.6896 75.1377 94.5104 69.9097C94.3198 64.5733 94.4933 52.5998 94.5502 49.0574C94.5502 49.0483 94.5538 49.0396 94.5602 49.0332C94.5666 49.0268 94.5753 49.0232 94.5844 49.0232C94.5937 49.0232 94.6027 49.0267 94.6096 49.033C94.6164 49.0394 94.6206 49.0481 94.6213 49.0574C94.5644 52.5998 94.3909 64.5733 94.5815 69.9068C94.7664 75.1349 96.2373 89.7038 96.8575 95.7276C96.8576 95.7373 96.8542 95.7467 96.8479 95.754C96.8416 95.7613 96.8329 95.7661 96.8234 95.7675H96.8205Z" fill="#6F2877"/>
<path opacity="0.4" d="M96.8205 95.7675C96.8119 95.7676 96.8037 95.7644 96.7973 95.7585C96.791 95.7527 96.7871 95.7447 96.7864 95.7362C96.1605 89.7124 94.6896 75.1377 94.5104 69.9097C94.3198 64.5733 94.4933 52.5998 94.5502 49.0574C94.5502 49.0483 94.5538 49.0396 94.5602 49.0332C94.5666 49.0268 94.5753 49.0232 94.5844 49.0232C94.5937 49.0232 94.6027 49.0267 94.6096 49.033C94.6164 49.0394 94.6206 49.0481 94.6213 49.0574C94.5644 52.5998 94.3909 64.5733 94.5815 69.9068C94.7664 75.1349 96.2373 89.7038 96.8575 95.7276C96.8576 95.7373 96.8542 95.7467 96.8479 95.754C96.8416 95.7613 96.8329 95.7661 96.8234 95.7675H96.8205Z" fill="white"/>
<path d="M95.3979 96.9026C95.3837 96.9026 95.5999 98.3772 95.5999 98.3772H99.9044L100.021 97.0623L95.3979 96.9026Z" fill="#6F2877"/>
<path opacity="0.1" d="M95.3979 96.9026C95.3837 96.9026 95.5999 98.3772 95.5999 98.3772H99.9044L100.021 97.0623L95.3979 96.9026Z" fill="black"/>
</svg>
